<?xml version="1.0" encoding="utf-8"?>
<!-- Generator: Adobe Illustrator 15.1.0, SVG Export Plug-In . SVG Version: 6.00 Build 0)  -->
<!DOCTYPE svg PUBLIC "-//W3C//DTD SVG 1.1//EN" "http://www.w3.org/Graphics/SVG/1.1/DTD/svg11.dtd">
<svg version="1.1" id="Layer_1" xmlns="http://www.w3.org/2000/svg" xmlns:xlink="http://www.w3.org/1999/xlink" x="0px" y="0px"
	 width="96px" height="100px" viewBox="0 0 96 100" enable-background="new 0 0 96 100" xml:space="preserve">
<g>
	<path fill="#FFFFFF" d="M67.018,77.05c-5.811,0-8.95-0.935-9.417-2.805l-3.306-12.923H38.367l-2.905,12.422
		c-0.4,2.071-3.606,3.105-9.617,3.105c-3.206,0-5.577-0.184-7.113-0.551c-1.537-0.366-2.304-0.651-2.304-0.852L34.16,7.627
		c0-0.534,4.574-0.801,13.724-0.801c9.149,0,13.725,0.268,13.725,0.801l17.33,67.919c0,0.469-1.537,0.836-4.608,1.103
		C71.258,76.915,68.821,77.05,67.018,77.05z M40.872,48.6H51.39l-4.507-20.736h-0.601L40.872,48.6z"/>
</g>
<g>
	<path fill="#FFFFFF" d="M72.177,24.858c0,6.947-3.005,12.222-9.016,15.828c3.271,1.202,6.011,3.273,8.215,6.211
		c2.203,2.939,3.306,7.097,3.306,12.472c0,5.376-1.988,9.634-5.961,12.772c-3.974,3.14-9.667,4.708-17.08,4.708H27.999
		c-1.136,0-2.071-0.384-2.805-1.152c-0.736-0.767-1.102-1.786-1.102-3.055V8.529c0-0.734,0.116-1.218,0.351-1.453
		c0.233-0.233,0.717-0.351,1.453-0.351h22.841C64.363,6.726,72.177,12.771,72.177,24.858z M43.326,22.955v13.123h0.501
		c6.411,0,9.617-2.137,9.617-6.411c0-2.337-0.618-4.04-1.854-5.109c-1.236-1.068-3.29-1.603-6.161-1.603H43.326z M43.326,47.898
		v13.023h1.803c2.871,0,4.974-0.534,6.311-1.604c1.335-1.067,2.004-2.771,2.004-5.108c0-2.337-0.618-3.973-1.854-4.909
		c-1.236-0.934-3.29-1.402-6.161-1.402H43.326z"/>
</g>
<g>
	<path fill="#FFFFFF" d="M66.167,7.878c3.706,1.37,5.56,3.223,5.56,5.56c0,2.338-0.886,5.226-2.654,8.665
		c-1.771,3.44-3.256,5.159-4.458,5.159c-0.335,0-0.719-0.183-1.152-0.551c-0.435-0.366-1.437-0.767-3.005-1.202
		c-1.57-0.434-2.923-0.651-4.058-0.651c-3.874,0-6.996,1.37-9.366,4.107c-2.372,2.739-3.556,6.929-3.556,12.572
		c0,5.645,1.218,9.835,3.656,12.572c2.437,2.739,5.525,4.107,9.266,4.107c1.536,0,3.256-0.216,5.159-0.651
		c1.903-0.434,3.256-1.052,4.058-1.854c0.133-0.133,0.4-0.2,0.801-0.2c0.401,0,1.152,0.752,2.254,2.254
		c1.103,1.503,2.12,3.474,3.056,5.911c0.935,2.438,1.402,4.324,1.402,5.659c0,2.605-2.003,4.676-6.011,6.211
		c-4.007,1.536-8.749,2.305-14.225,2.305c-8.816,0-16.063-3.105-21.738-9.316c-5.677-6.211-8.515-14.977-8.515-26.296
		c0-11.32,2.921-20.219,8.766-26.697c5.843-6.477,13.139-9.717,21.888-9.717C58.168,5.824,62.46,6.51,66.167,7.878z"/>
</g>
<g>
	<path fill="#FFFFFF" d="M21.888,72.241V12.135c0-1.668,0.417-2.988,1.252-3.957c0.834-0.968,1.919-1.453,3.255-1.453h16.729
		c10.619,0,18.684,2.672,24.192,8.014c5.51,5.344,8.265,13.758,8.265,25.244c0,24.578-10.485,36.865-31.455,36.865h-17.13
		C23.591,76.85,21.888,75.314,21.888,72.241z M41.122,25.759v29.953c0,1.403,0.1,2.289,0.301,2.655
		c0.2,0.367,0.801,0.551,1.803,0.551c3.672,0,6.461-1.368,8.364-4.107c1.903-2.737,2.855-7.295,2.855-13.674
		c0-6.377-0.986-10.534-2.955-12.472c-1.971-1.936-5.094-2.905-9.367-2.905H41.122z"/>
</g>
<g>
	<path fill="#FFFFFF" d="M60.606,34.575c1.268,0,1.903,2.338,1.903,7.012c0,1.402-0.15,3.055-0.451,4.959
		c-0.3,1.903-0.852,2.855-1.652,2.855H47.684v10.018h18.433c1.135,0,1.903,1.47,2.304,4.407c0.2,1.27,0.301,2.622,0.301,4.058
		c0,1.437-0.2,3.29-0.602,5.56c-0.4,2.271-1.068,3.406-2.003,3.406H31.855c-2.539,0-3.807-1.034-3.807-3.105V9.331
		c0-1.736,0.767-2.604,2.304-2.604h35.863c1.403,0,2.104,2.955,2.104,8.866c0,5.91-0.701,8.865-2.104,8.865H47.684v10.118H60.606z"
		/>
</g>
<g>
	<path fill="#FFFFFF" d="M66.566,6.726c1.135,0,1.703,2.955,1.703,8.866c0,5.91-0.568,8.865-1.703,8.865H48.235v11.42h12.222
		c1.135,0,1.703,2.589,1.703,7.764c0,5.176-0.535,7.763-1.604,7.763H48.235v24.143c0,0.937-1.252,1.553-3.757,1.854
		s-4.592,0.451-6.261,0.451l-4.708-0.2c-3.273-0.401-4.909-1.067-4.909-2.004V9.331c0-1.067,0.216-1.769,0.651-2.104
		c0.434-0.333,1.084-0.501,1.953-0.501H66.566z"/>
</g>
<g>
	<path fill="#FFFFFF" d="M58.703,55.913l0.2-13.625c0-0.935,0.968-1.553,2.905-1.853c1.937-0.301,3.539-0.451,4.809-0.451
		l3.907,0.301c2.537,0.401,3.807,1.102,3.807,2.104L73.93,73.744c-1.337,0.936-4.024,1.854-8.063,2.755
		c-4.042,0.901-8.666,1.353-13.875,1.353c-9.684,0-17.498-3.139-23.441-9.417c-5.945-6.276-8.916-15.493-8.916-27.648
		c0-10.351,2.905-18.766,8.715-25.245c5.81-6.477,13.857-9.717,24.143-9.717c4.674,0,8.898,0.451,12.672,1.353
		c3.772,0.901,6.361,2.121,7.764,3.656c0.066,0.536,0.101,1.537,0.101,3.005c0,1.47-0.501,3.556-1.503,6.261
		c-1.001,2.705-2.138,4.726-3.405,6.061c-1.27,1.337-2.188,2.003-2.755,2.003c-0.568,0-1.17-0.25-1.804-0.751
		c-0.636-0.501-1.888-1.035-3.757-1.603c-1.87-0.566-3.673-0.852-5.409-0.852c-4.142,0-7.498,1.337-10.068,4.007
		c-2.572,2.672-3.856,6.812-3.856,12.422s1.318,9.868,3.957,12.772c2.638,2.905,5.676,4.358,9.116,4.358
		C56.982,58.518,58.703,57.65,58.703,55.913z"/>
</g>
<g>
	<path fill="#FFFFFF" d="M74.982,75.146c0,1.137-3.373,1.703-10.119,1.703s-10.117-0.566-10.117-1.703v-23.04H40.722v23.04
		c0,1.137-3.373,1.703-10.118,1.703c-6.746,0-10.118-0.566-10.118-1.703V8.729c0-1.402,3.372-2.104,10.118-2.104
		c6.745,0,10.118,0.701,10.118,2.104v23.542h14.024V8.93c0-0.935,1.668-1.603,5.01-2.003c1.734-0.133,3.438-0.2,5.107-0.2l5.109,0.2
		c3.34,0.401,5.01,1.069,5.01,2.003V75.146z"/>
</g>
<g>
	<path fill="#FFFFFF" d="M37.867,59.619V23.957h-7.113c-1.136,0-1.938-1.436-2.404-4.308c-0.2-1.403-0.3-2.838-0.3-4.308
		c0-1.468,0.1-2.905,0.3-4.308c0.467-2.871,1.268-4.308,2.404-4.308h33.66c1.135,0,1.902,1.437,2.305,4.308
		c0.266,1.402,0.4,2.839,0.4,4.308c0,1.47-0.135,2.905-0.4,4.308c-0.402,2.872-1.17,4.308-2.305,4.308h-6.713v35.663h7.014
		c1.135,0,1.936,1.437,2.404,4.308c0.266,1.402,0.4,2.84,0.4,4.308c0,1.47-0.135,2.905-0.4,4.308
		c-0.469,2.872-1.27,4.308-2.404,4.308h-33.76c-1.137,0-1.903-1.436-2.304-4.308c-0.268-1.402-0.401-2.838-0.401-4.308
		c0-1.468,0.133-2.905,0.401-4.308c0.401-2.871,1.167-4.308,2.304-4.308H37.867z"/>
</g>
<g>
	<path fill="#FFFFFF" d="M25.495,67.834c0-1.937,0.567-4.19,1.703-6.762c1.135-2.57,2.37-4.324,3.707-5.26
		c2.538,1.87,5.109,2.805,7.714,2.805l3.105-0.501c3.606-1.067,5.475-3.939,5.61-8.615V23.957h-8.014
		c-1.137,0-1.938-1.436-2.404-4.308c-0.2-1.403-0.301-2.838-0.301-4.308c0-1.468,0.101-2.905,0.301-4.308
		c0.466-2.871,1.268-4.308,2.404-4.308h23.843c1.334,0,2.336,0.385,3.004,1.152c0.668,0.769,1.002,1.688,1.002,2.755v47.283
		c0,6.546-2.188,11.521-6.561,14.927c-4.375,3.406-9.617,5.108-15.729,5.108c-6.111,0-10.869-0.901-14.275-2.704
		C27.198,73.443,25.495,70.974,25.495,67.834z"/>
</g>
<g>
	<path fill="#FFFFFF" d="M41.723,75.447c0,1.002-3.14,1.503-9.417,1.503l-5.61-0.301c-3.34-0.267-5.009-0.734-5.009-1.402V8.028
		c0-1.135,3.339-1.703,10.018-1.703c6.678,0,10.018,0.568,10.018,1.703v25.645L53.945,8.028c0.467-0.935,3.139-1.402,8.014-1.402
		c8.881,0,13.557,0.769,14.025,2.304c0,0.135-0.035,0.268-0.102,0.401l-17.43,31.456l20.236,27.949c0,0.135-0.637,0.701-1.904,1.703
		c-3.072,2.672-6.68,4.775-10.818,6.311c-1.27,0.467-2.539,0.701-3.807,0.701l-2.404-0.2c-2.139-0.533-3.807-1.903-5.01-4.106
		l-11.42-21.839h-1.603V75.447z"/>
</g>
<g>
	<path fill="#FFFFFF" d="M29.952,70.94V8.63c0-1.402,3.389-2.104,10.168-2.104c6.778,0,10.168,0.702,10.168,2.104v49.086h15.428
		c1.202,0,2.036,1.57,2.504,4.708c0.2,1.537,0.301,3.105,0.301,4.709c0,1.603-0.101,3.24-0.301,4.908
		c-0.535,3.206-1.402,4.809-2.604,4.809H34.761c-1.47,0-2.639-0.601-3.506-1.803C30.386,73.846,29.952,72.478,29.952,70.94z"/>
</g>
<g>
	<path fill="#FFFFFF" d="M77.436,76.951c-5.945,0-8.916-0.667-8.916-2.004l-2.104-40.171L54.194,75.448
		c-0.268,0.802-2.539,1.202-6.812,1.202c-4.275,0-6.479-0.366-6.612-1.103L28.148,34.375l-1.403,39.97
		c-0.067,1.002-1.336,1.688-3.807,2.054c-2.471,0.368-4.525,0.552-6.161,0.552c-1.637,0-3.223-0.101-4.758-0.301
		c-3.206-0.467-4.776-1.303-4.708-2.505L9.616,9.031c0-1.603,4.073-2.404,12.222-2.404c2.404,0,5.342,0.185,8.815,0.551
		c3.472,0.368,5.41,1.086,5.81,2.154l11.22,31.556L57.5,9.231c0.602-1.736,5.209-2.604,13.824-2.604
		c2.471,0,5.426,0.185,8.866,0.551c3.438,0.368,5.159,1.019,5.159,1.954l2.904,65.715c0,0.736-1.302,1.27-3.906,1.604
		C81.743,76.785,79.438,76.951,77.436,76.951z"/>
</g>
<g>
	<path fill="#FFFFFF" d="M75.182,74.646c0,1.402-3.139,2.104-9.416,2.104s-9.684-0.5-10.217-1.502l-16.73-31.255v31.155
		c0,1.202-3.09,1.804-9.266,1.804c-6.178,0-9.267-0.602-9.267-1.804V8.129c0-1.002,2.638-1.502,7.914-1.502
		c2.069,0,4.491,0.185,7.263,0.551c2.771,0.368,4.458,1.052,5.059,2.054l16.027,30.854V8.63c0-1.268,3.105-1.903,9.316-1.903
		s9.316,0.635,9.316,1.903V74.646z"/>
</g>
<g>
	<path fill="#FFFFFF" d="M47.684,77.852c-9.384,0-17.03-3.071-22.94-9.217c-5.911-6.144-8.866-15.109-8.866-26.897
		c0-11.787,2.988-20.719,8.966-26.797c5.976-6.076,13.689-9.116,23.141-9.116c9.45,0,17.081,2.99,22.89,8.966
		c5.811,5.978,8.716,15.027,8.716,27.148c0,12.122-2.973,21.137-8.916,27.047C64.729,74.896,57.065,77.852,47.684,77.852z
		 M47.733,25.058c-3.206,0-5.895,1.47-8.064,4.408c-2.171,2.94-3.256,7.062-3.256,12.372s1.035,9.384,3.105,12.222
		c2.069,2.839,4.792,4.258,8.165,4.258c3.371,0,6.11-1.436,8.215-4.308c2.104-2.871,3.155-6.979,3.155-12.322
		c0-5.342-1.087-9.449-3.256-12.322C53.627,26.495,50.939,25.058,47.733,25.058z"/>
</g>
<g>
	<path fill="#FFFFFF" d="M32.908,77.05c-6.078,0-9.116-0.667-9.116-2.003V10.132c0-2.27,1.035-3.406,3.105-3.406h17.631
		c9.883,0,17.013,2.038,21.388,6.111c4.373,4.074,6.562,9.984,6.562,17.731c0,6.412-2.07,12.289-6.211,17.631
		c-2.071,2.672-5.109,4.809-9.116,6.411s-8.682,2.404-14.024,2.404v17.932c0,0.802-1.252,1.353-3.757,1.653
		C36.865,76.899,34.711,77.05,32.908,77.05z M43.126,24.157v15.828h1.302c2.337,0,4.308-0.734,5.911-2.204
		c1.603-1.468,2.404-3.539,2.404-6.211c0-2.67-0.552-4.574-1.653-5.71c-1.102-1.135-3.055-1.703-5.86-1.703H43.126z"/>
</g>
<g>
	<path fill="#FFFFFF" d="M15.377,41.888c0-11.887,2.988-20.87,8.966-26.948c5.976-6.076,13.689-9.116,23.141-9.116
		c9.45,0,17.081,2.99,22.89,8.966c5.811,5.978,8.717,15.011,8.717,27.098c0,9.284-1.805,16.764-5.41,22.439
		c-3.605,5.678-8.549,9.584-14.826,11.721l10.619,7.313c0.4,0.266,0.602,0.751,0.602,1.452s-0.752,2.02-2.254,3.957
		c-1.504,1.937-3.307,3.422-5.41,4.458c-2.104,1.034-3.691,1.553-4.758,1.553c-1.07,0-1.939-0.368-2.605-1.102L40.421,77.45
		c-7.48-1.402-13.524-5.158-18.132-11.27C17.681,60.07,15.377,51.973,15.377,41.888z M47.233,25.058
		c-3.206,0-5.895,1.47-8.064,4.408c-2.171,2.94-3.256,7.062-3.256,12.372s1.035,9.384,3.105,12.222
		c2.069,2.839,4.792,4.258,8.165,4.258c3.372,0,6.11-1.436,8.215-4.308c2.104-2.871,3.154-6.979,3.154-12.322
		c0-5.342-1.086-9.449-3.256-12.322C53.127,26.495,50.439,25.058,47.233,25.058z"/>
</g>
<g>
	<path fill="#FFFFFF" d="M42.324,75.447c0,1.069-3.173,1.603-9.517,1.603c-6.412,0-9.617-0.501-9.617-1.503V10.232
		c0-2.337,1.235-3.506,3.707-3.506h19.134c17.564,0,26.346,6.846,26.346,20.536c0,4.142-0.801,7.898-2.404,11.27
		c-1.603,3.373-3.874,6.061-6.812,8.064l12.622,21.038c-0.535,1.603-2.271,3.44-5.209,5.51c-4.007,2.872-7.313,4.307-9.918,4.307
		s-4.542-0.934-5.81-2.805L45.43,52.707h-3.105V75.447z M42.324,24.457v15.027h0.501c6.344,0,9.517-2.638,9.517-7.914
		c0-2.404-0.618-4.19-1.854-5.359c-1.236-1.168-3.255-1.753-6.061-1.753H42.324z"/>
</g>
<g>
	<path fill="#FFFFFF" d="M28.75,52.406c1.268,1.002,3.456,2.372,6.562,4.107c3.105,1.737,6.077,2.604,8.916,2.604
		c2.838,0,4.257-1.102,4.257-3.306c0-1.002-0.4-1.886-1.202-2.654c-0.801-0.768-2.271-1.653-4.408-2.655
		c-2.138-1.001-3.741-1.786-4.809-2.354c-1.069-0.566-2.489-1.502-4.257-2.805c-1.771-1.302-3.123-2.655-4.057-4.057
		c-2.672-3.807-4.007-8.648-4.007-14.526c0-5.876,2.187-10.834,6.562-14.876c4.373-4.04,10.101-6.061,17.18-6.061
		c4.809,0,9.25,0.518,13.324,1.553c4.072,1.036,6.176,2.389,6.311,4.057c0,0.201,0,0.401,0,0.601c0,2.339-0.735,5.294-2.204,8.866
		c-1.47,3.574-2.504,5.56-3.105,5.96c-4.274-2.204-8.099-3.306-11.47-3.306c-3.373,0-5.059,1.202-5.059,3.606
		c0,1.47,1.235,2.772,3.707,3.907c0.534,0.268,1.303,0.636,2.304,1.102c1.002,0.468,2.154,1.019,3.457,1.653
		c1.302,0.635,2.704,1.437,4.207,2.404c1.503,0.969,3.121,2.254,4.858,3.857c3.539,3.34,5.31,7.748,5.31,13.223
		c0,7.147-1.971,12.99-5.91,17.531c-3.941,4.543-10.018,6.878-18.232,7.013c-4.007,0-7.631-0.335-10.869-1.002
		c-3.24-0.667-6.061-1.969-8.465-3.907c-2.404-1.936-3.606-4.272-3.606-7.012c0-2.738,0.501-5.46,1.502-8.165
		C26.546,55.062,27.614,53.275,28.75,52.406z"/>
</g>
<g>
	<path fill="#FFFFFF" d="M57.751,75.247c0,1.337-3.306,2.003-9.917,2.003s-9.917-0.666-9.917-2.003V24.958H25.895
		c-1.136,0-1.938-1.536-2.404-4.608c-0.2-1.468-0.3-2.971-0.3-4.508c0-1.535,0.1-3.038,0.3-4.508
		c0.467-3.071,1.268-4.608,2.404-4.608h43.577c1.135,0,1.937,1.537,2.404,4.608c0.2,1.47,0.301,2.973,0.301,4.508
		c0,1.537-0.101,3.04-0.301,4.508c-0.468,3.072-1.27,4.608-2.404,4.608H57.751V75.247z"/>
</g>
<g>
	<path fill="#FFFFFF" d="M54.045,8.729c0-1.335,3.622-2.003,10.869-2.003c7.246,0,10.869,0.668,10.869,2.003v45.981
		c0,6.812-2.438,12.371-7.312,16.679c-4.876,4.308-11.605,6.462-20.186,6.462c-8.582,0-15.562-2.22-20.937-6.662
		c-5.376-4.44-8.064-10.434-8.064-17.981V8.83c0-1.335,3.622-2.003,10.869-2.003c7.246,0,10.869,0.668,10.869,2.003v45.18
		c0,1.336,0.701,2.403,2.104,3.205c1.468,0.802,3.005,1.202,4.608,1.202s3.055-0.366,4.358-1.102
		c1.302-0.734,1.953-1.836,1.953-3.306V8.729z"/>
</g>
<g>
	<path fill="#FFFFFF" d="M15.727,8.028c0-0.333,1.453-0.651,4.357-0.952c2.905-0.301,5.292-0.451,7.163-0.451
		c7.413,0,11.286,0.969,11.621,2.905l8.615,44.078l8.115-44.078c0.4-1.936,4.54-2.905,12.422-2.905c1.936,0,4.373,0.134,7.312,0.4
		c2.938,0.268,4.408,0.568,4.408,0.902L62.009,74.245c-0.268,1.069-2.238,1.771-5.911,2.104c-5.677,0.602-10.836,0.717-15.477,0.351
		c-4.642-0.366-7.097-1.018-7.363-1.953L15.727,8.028z"/>
</g>
<g>
	<path fill="#FFFFFF" d="M2.103,7.728c-0.2-0.734,3.171-1.102,10.118-1.102c7.679,0,11.621,0.635,11.821,1.903l4.909,42.174
		L39.569,8.028c0.333-1.002,2.938-1.503,7.814-1.503c4.875,0,7.478,0.468,7.814,1.403l10.418,42.976l5.811-42.576
		c0.133-0.734,1.668-1.235,4.607-1.502c2.938-0.266,5.311-0.401,7.113-0.401c7.012,0,10.418,0.468,10.217,1.403L81.242,74.245
		c-0.268,1.002-2.17,1.737-5.709,2.204c-3.541,0.466-6.412,0.701-8.615,0.701c-8.283,0-12.623-0.935-13.023-2.806l-6.812-27.548
		l-7.413,27.449c-0.268,1.202-2.604,2.07-7.012,2.604c-2.271,0.2-4.542,0.301-6.812,0.301l-6.412-0.301
		c-4.408-0.467-6.746-1.303-7.012-2.505L2.103,7.728z"/>
</g>
<g>
	<path fill="#FFFFFF" d="M55.697,9.431c0.801-2.003,4.974-3.005,12.521-3.005c1.937,0,4.323,0.15,7.163,0.451
		c2.838,0.301,4.257,0.585,4.257,0.852L62.609,42.389L80.24,75.547c0.2,0.335-1.236,0.651-4.308,0.952
		c-3.072,0.301-5.678,0.451-7.813,0.451c-8.482,0-13.124-1.135-13.925-3.406L46.681,54.41l-6.812,19.734
		c-0.668,1.871-4.943,2.806-12.823,2.806c-1.938,0-4.342-0.134-7.213-0.401c-2.872-0.266-4.174-0.634-3.907-1.102l15.627-34.661
		L15.326,7.728c-0.2-0.333,1.185-0.651,4.157-0.952c2.971-0.3,5.493-0.451,7.563-0.451c8.415,0,13.023,1.202,13.824,3.606
		l6.912,16.83L55.697,9.431z"/>
</g>
<g>
	<path fill="#FFFFFF" d="M56.555,10.033c0.867-2.337,5.141-3.506,12.822-3.506c1.936,0,4.223,0.135,6.861,0.401
		c2.639,0.268,3.857,0.601,3.658,1.002L59.059,49.803v24.443c0,1.137-1.838,1.938-5.51,2.404c-1.871,0.266-3.707,0.4-5.509,0.4
		c-1.803,0-3.606-0.1-5.41-0.301c-3.674-0.466-5.51-1.302-5.51-2.504V50.404L15.582,8.129c-0.266-0.401,1.102-0.784,4.107-1.152
		c3.005-0.366,5.542-0.551,7.613-0.551c8.214,0,12.723,1.202,13.524,3.606l7.313,20.436L56.555,10.033z"/>
</g>
<g>
	<path fill="#FFFFFF" d="M27.147,24.958c-1.136,0-1.938-1.536-2.404-4.608c-0.2-1.268-0.3-2.67-0.3-4.208
		c0-1.536,0.166-3.138,0.501-4.809c0.601-3.071,1.603-4.608,3.005-4.608h37.065c4.072,0,6.712,3.707,7.914,11.12
		c0.266,1.603,0.4,2.772,0.4,3.506L49.888,56.914H68.22c0.066,0,0.134,0,0.2,0c1.469,0,2.505,1.604,3.105,4.809
		c0.267,1.537,0.401,3.141,0.401,4.809c0,1.67-0.2,3.44-0.602,5.31c-0.735,3.34-1.87,5.009-3.405,5.009H28.951
		c-0.601,0-1.687-2.02-3.256-6.061c-1.57-4.04-2.354-6.562-2.354-7.563s0.1-1.636,0.301-1.903l23.441-36.364H27.147z"/>
</g>
</svg>
