<?xml version="1.0" encoding="utf-8"?>
<!DOCTYPE svg PUBLIC "-//W3C//DTD SVG 1.1//EN" "http://www.w3.org/Graphics/SVG/1.1/DTD/svg11.dtd">
<svg version="1.1" xmlns="http://www.w3.org/2000/svg" xmlns:xlink="http://www.w3.org/1999/xlink"id="Layer_1" viewBox="0 0 96 100" xml:space="preserve">
<g xmlns="http://www.w3.org/2000/svg" xmlns:xlink="http://www.w3.org/1999/xlink">
	<path fill="#FFFFFF" d="M67.018,77.05c-5.811,0-8.95-0.935-9.417-2.805l-3.306-12.923H38.367l-2.905,12.422   c-0.4,2.071-3.606,3.105-9.617,3.105c-3.206,0-5.577-0.184-7.113-0.551c-1.537-0.366-2.304-0.651-2.304-0.852L34.16,7.627   c0-0.534,4.574-0.801,13.724-0.801c9.149,0,13.725,0.268,13.725,0.801l17.33,67.919c0,0.469-1.537,0.836-4.608,1.103   C71.258,76.915,68.821,77.05,67.018,77.05z M40.872,48.6H51.39l-4.507-20.736h-0.601L40.872,48.6z"/>
</g>
</svg>