<?xml version="1.0" encoding="utf-8"?>
<!DOCTYPE svg PUBLIC "-//W3C//DTD SVG 1.1//EN" "http://www.w3.org/Graphics/SVG/1.1/DTD/svg11.dtd">
<svg version="1.1" xmlns="http://www.w3.org/2000/svg" xmlns:xlink="http://www.w3.org/1999/xlink"id="Layer_1" viewBox="0 0 96 100" xml:space="preserve">
<g xmlns="http://www.w3.org/2000/svg" xmlns:xlink="http://www.w3.org/1999/xlink">
	<path fill="#FFFFFF" d="M72.177,24.858c0,6.947-3.005,12.222-9.016,15.828c3.271,1.202,6.011,3.273,8.215,6.211   c2.203,2.939,3.306,7.097,3.306,12.472c0,5.376-1.988,9.634-5.961,12.772c-3.974,3.14-9.667,4.708-17.08,4.708H27.999   c-1.136,0-2.071-0.384-2.805-1.152c-0.736-0.767-1.102-1.786-1.102-3.055V8.529c0-0.734,0.116-1.218,0.351-1.453   c0.233-0.233,0.717-0.351,1.453-0.351h22.841C64.363,6.726,72.177,12.771,72.177,24.858z M43.326,22.955v13.123h0.501   c6.411,0,9.617-2.137,9.617-6.411c0-2.337-0.618-4.04-1.854-5.109c-1.236-1.068-3.29-1.603-6.161-1.603H43.326z M43.326,47.898   v13.023h1.803c2.871,0,4.974-0.534,6.311-1.604c1.335-1.067,2.004-2.771,2.004-5.108c0-2.337-0.618-3.973-1.854-4.909   c-1.236-0.934-3.29-1.402-6.161-1.402H43.326z"/>
</g>
</svg>