<?xml version="1.0" encoding="utf-8"?>
<!DOCTYPE svg PUBLIC "-//W3C//DTD SVG 1.1//EN" "http://www.w3.org/Graphics/SVG/1.1/DTD/svg11.dtd">
<svg version="1.1" xmlns="http://www.w3.org/2000/svg" xmlns:xlink="http://www.w3.org/1999/xlink"id="Layer_1" viewBox="0 0 96 100" xml:space="preserve">
<g xmlns="http://www.w3.org/2000/svg" xmlns:xlink="http://www.w3.org/1999/xlink">
	<path fill="#FFFFFF" d="M66.167,7.878c3.706,1.37,5.56,3.223,5.56,5.56c0,2.338-0.886,5.226-2.654,8.665   c-1.771,3.44-3.256,5.159-4.458,5.159c-0.335,0-0.719-0.183-1.152-0.551c-0.435-0.366-1.437-0.767-3.005-1.202   c-1.57-0.434-2.923-0.651-4.058-0.651c-3.874,0-6.996,1.37-9.366,4.107c-2.372,2.739-3.556,6.929-3.556,12.572   c0,5.645,1.218,9.835,3.656,12.572c2.437,2.739,5.525,4.107,9.266,4.107c1.536,0,3.256-0.216,5.159-0.651   c1.903-0.434,3.256-1.052,4.058-1.854c0.133-0.133,0.4-0.2,0.801-0.2c0.401,0,1.152,0.752,2.254,2.254   c1.103,1.503,2.12,3.474,3.056,5.911c0.935,2.438,1.402,4.324,1.402,5.659c0,2.605-2.003,4.676-6.011,6.211   c-4.007,1.536-8.749,2.305-14.225,2.305c-8.816,0-16.063-3.105-21.738-9.316c-5.677-6.211-8.515-14.977-8.515-26.296   c0-11.32,2.921-20.219,8.766-26.697c5.843-6.477,13.139-9.717,21.888-9.717C58.168,5.824,62.46,6.51,66.167,7.878z"/>
</g>
</svg>