<?xml version="1.0" encoding="utf-8"?>
<!DOCTYPE svg PUBLIC "-//W3C//DTD SVG 1.1//EN" "http://www.w3.org/Graphics/SVG/1.1/DTD/svg11.dtd">
<svg version="1.1" xmlns="http://www.w3.org/2000/svg" xmlns:xlink="http://www.w3.org/1999/xlink"id="Layer_1" viewBox="0 0 96 100" xml:space="preserve">
<g xmlns="http://www.w3.org/2000/svg" xmlns:xlink="http://www.w3.org/1999/xlink">
	<path fill="#FFFFFF" d="M21.888,72.241V12.135c0-1.668,0.417-2.988,1.252-3.957c0.834-0.968,1.919-1.453,3.255-1.453h16.729   c10.619,0,18.684,2.672,24.192,8.014c5.51,5.344,8.265,13.758,8.265,25.244c0,24.578-10.485,36.865-31.455,36.865h-17.13   C23.591,76.85,21.888,75.314,21.888,72.241z M41.122,25.759v29.953c0,1.403,0.1,2.289,0.301,2.655   c0.2,0.367,0.801,0.551,1.803,0.551c3.672,0,6.461-1.368,8.364-4.107c1.903-2.737,2.855-7.295,2.855-13.674   c0-6.377-0.986-10.534-2.955-12.472c-1.971-1.936-5.094-2.905-9.367-2.905H41.122z"/>
</g>
</svg>