<?xml version="1.0" encoding="utf-8"?>
<!DOCTYPE svg PUBLIC "-//W3C//DTD SVG 1.1//EN" "http://www.w3.org/Graphics/SVG/1.1/DTD/svg11.dtd">
<svg version="1.1" xmlns="http://www.w3.org/2000/svg" xmlns:xlink="http://www.w3.org/1999/xlink"id="Layer_1" viewBox="0 0 96 100" xml:space="preserve">
<g xmlns="http://www.w3.org/2000/svg" xmlns:xlink="http://www.w3.org/1999/xlink">
	<path fill="#FFFFFF" d="M60.606,34.575c1.268,0,1.903,2.338,1.903,7.012c0,1.402-0.15,3.055-0.451,4.959   c-0.3,1.903-0.852,2.855-1.652,2.855H47.684v10.018h18.433c1.135,0,1.903,1.47,2.304,4.407c0.2,1.27,0.301,2.622,0.301,4.058   c0,1.437-0.2,3.29-0.602,5.56c-0.4,2.271-1.068,3.406-2.003,3.406H31.855c-2.539,0-3.807-1.034-3.807-3.105V9.331   c0-1.736,0.767-2.604,2.304-2.604h35.863c1.403,0,2.104,2.955,2.104,8.866c0,5.91-0.701,8.865-2.104,8.865H47.684v10.118H60.606z"/>
</g>
</svg>