<?xml version="1.0" encoding="utf-8"?>
<!DOCTYPE svg PUBLIC "-//W3C//DTD SVG 1.1//EN" "http://www.w3.org/Graphics/SVG/1.1/DTD/svg11.dtd">
<svg version="1.1" xmlns="http://www.w3.org/2000/svg" xmlns:xlink="http://www.w3.org/1999/xlink"id="Layer_1" viewBox="0 0 96 100" xml:space="preserve">
<g xmlns="http://www.w3.org/2000/svg" xmlns:xlink="http://www.w3.org/1999/xlink">
	<path fill="#FFFFFF" d="M66.566,6.726c1.135,0,1.703,2.955,1.703,8.866c0,5.91-0.568,8.865-1.703,8.865H48.235v11.42h12.222   c1.135,0,1.703,2.589,1.703,7.764c0,5.176-0.535,7.763-1.604,7.763H48.235v24.143c0,0.937-1.252,1.553-3.757,1.854   s-4.592,0.451-6.261,0.451l-4.708-0.2c-3.273-0.401-4.909-1.067-4.909-2.004V9.331c0-1.067,0.216-1.769,0.651-2.104   c0.434-0.333,1.084-0.501,1.953-0.501H66.566z"/>
</g>
</svg>