<?xml version="1.0" encoding="utf-8"?>
<!DOCTYPE svg PUBLIC "-//W3C//DTD SVG 1.1//EN" "http://www.w3.org/Graphics/SVG/1.1/DTD/svg11.dtd">
<svg version="1.1" xmlns="http://www.w3.org/2000/svg" xmlns:xlink="http://www.w3.org/1999/xlink"id="Layer_1" viewBox="0 0 96 100" xml:space="preserve">
<g xmlns="http://www.w3.org/2000/svg" xmlns:xlink="http://www.w3.org/1999/xlink">
	<path fill="#FFFFFF" d="M58.703,55.913l0.2-13.625c0-0.935,0.968-1.553,2.905-1.853c1.937-0.301,3.539-0.451,4.809-0.451   l3.907,0.301c2.537,0.401,3.807,1.102,3.807,2.104L73.93,73.744c-1.337,0.936-4.024,1.854-8.063,2.755   c-4.042,0.901-8.666,1.353-13.875,1.353c-9.684,0-17.498-3.139-23.441-9.417c-5.945-6.276-8.916-15.493-8.916-27.648   c0-10.351,2.905-18.766,8.715-25.245c5.81-6.477,13.857-9.717,24.143-9.717c4.674,0,8.898,0.451,12.672,1.353   c3.772,0.901,6.361,2.121,7.764,3.656c0.066,0.536,0.101,1.537,0.101,3.005c0,1.47-0.501,3.556-1.503,6.261   c-1.001,2.705-2.138,4.726-3.405,6.061c-1.27,1.337-2.188,2.003-2.755,2.003c-0.568,0-1.17-0.25-1.804-0.751   c-0.636-0.501-1.888-1.035-3.757-1.603c-1.87-0.566-3.673-0.852-5.409-0.852c-4.142,0-7.498,1.337-10.068,4.007   c-2.572,2.672-3.856,6.812-3.856,12.422s1.318,9.868,3.957,12.772c2.638,2.905,5.676,4.358,9.116,4.358   C56.982,58.518,58.703,57.65,58.703,55.913z"/>
</g>
</svg>