<?xml version="1.0" encoding="utf-8"?>
<!DOCTYPE svg PUBLIC "-//W3C//DTD SVG 1.1//EN" "http://www.w3.org/Graphics/SVG/1.1/DTD/svg11.dtd">
<svg version="1.1" xmlns="http://www.w3.org/2000/svg" xmlns:xlink="http://www.w3.org/1999/xlink"id="Layer_1" viewBox="0 0 96 100" xml:space="preserve">
<g xmlns="http://www.w3.org/2000/svg" xmlns:xlink="http://www.w3.org/1999/xlink">
	<path fill="#FFFFFF" d="M37.867,59.619V23.957h-7.113c-1.136,0-1.938-1.436-2.404-4.308c-0.2-1.403-0.3-2.838-0.3-4.308   c0-1.468,0.1-2.905,0.3-4.308c0.467-2.871,1.268-4.308,2.404-4.308h33.66c1.135,0,1.902,1.437,2.305,4.308   c0.266,1.402,0.4,2.839,0.4,4.308c0,1.47-0.135,2.905-0.4,4.308c-0.402,2.872-1.17,4.308-2.305,4.308h-6.713v35.663h7.014   c1.135,0,1.936,1.437,2.404,4.308c0.266,1.402,0.4,2.84,0.4,4.308c0,1.47-0.135,2.905-0.4,4.308   c-0.469,2.872-1.27,4.308-2.404,4.308h-33.76c-1.137,0-1.903-1.436-2.304-4.308c-0.268-1.402-0.401-2.838-0.401-4.308   c0-1.468,0.133-2.905,0.401-4.308c0.401-2.871,1.167-4.308,2.304-4.308H37.867z"/>
</g>
</svg>