<?xml version="1.0" encoding="utf-8"?>
<!DOCTYPE svg PUBLIC "-//W3C//DTD SVG 1.1//EN" "http://www.w3.org/Graphics/SVG/1.1/DTD/svg11.dtd">
<svg version="1.1" xmlns="http://www.w3.org/2000/svg" xmlns:xlink="http://www.w3.org/1999/xlink"id="Layer_1" viewBox="0 0 96 100" xml:space="preserve">
<g xmlns="http://www.w3.org/2000/svg" xmlns:xlink="http://www.w3.org/1999/xlink">
	<path fill="#FFFFFF" d="M25.495,67.834c0-1.937,0.567-4.19,1.703-6.762c1.135-2.57,2.37-4.324,3.707-5.26   c2.538,1.87,5.109,2.805,7.714,2.805l3.105-0.501c3.606-1.067,5.475-3.939,5.61-8.615V23.957h-8.014   c-1.137,0-1.938-1.436-2.404-4.308c-0.2-1.403-0.301-2.838-0.301-4.308c0-1.468,0.101-2.905,0.301-4.308   c0.466-2.871,1.268-4.308,2.404-4.308h23.843c1.334,0,2.336,0.385,3.004,1.152c0.668,0.769,1.002,1.688,1.002,2.755v47.283   c0,6.546-2.188,11.521-6.561,14.927c-4.375,3.406-9.617,5.108-15.729,5.108c-6.111,0-10.869-0.901-14.275-2.704   C27.198,73.443,25.495,70.974,25.495,67.834z"/>
</g>
</svg>