<?xml version="1.0" encoding="utf-8"?>
<!DOCTYPE svg PUBLIC "-//W3C//DTD SVG 1.1//EN" "http://www.w3.org/Graphics/SVG/1.1/DTD/svg11.dtd">
<svg version="1.1" xmlns="http://www.w3.org/2000/svg" xmlns:xlink="http://www.w3.org/1999/xlink"id="Layer_1" viewBox="0 0 96 100" xml:space="preserve">
<g xmlns="http://www.w3.org/2000/svg" xmlns:xlink="http://www.w3.org/1999/xlink">
	<path fill="#FFFFFF" d="M41.723,75.447c0,1.002-3.14,1.503-9.417,1.503l-5.61-0.301c-3.34-0.267-5.009-0.734-5.009-1.402V8.028   c0-1.135,3.339-1.703,10.018-1.703c6.678,0,10.018,0.568,10.018,1.703v25.645L53.945,8.028c0.467-0.935,3.139-1.402,8.014-1.402   c8.881,0,13.557,0.769,14.025,2.304c0,0.135-0.035,0.268-0.102,0.401l-17.43,31.456l20.236,27.949c0,0.135-0.637,0.701-1.904,1.703   c-3.072,2.672-6.68,4.775-10.818,6.311c-1.27,0.467-2.539,0.701-3.807,0.701l-2.404-0.2c-2.139-0.533-3.807-1.903-5.01-4.106   l-11.42-21.839h-1.603V75.447z"/>
</g>
</svg>