<?xml version="1.0" encoding="utf-8"?>
<!DOCTYPE svg PUBLIC "-//W3C//DTD SVG 1.1//EN" "http://www.w3.org/Graphics/SVG/1.1/DTD/svg11.dtd">
<svg version="1.1" xmlns="http://www.w3.org/2000/svg" xmlns:xlink="http://www.w3.org/1999/xlink"id="Layer_1" viewBox="0 0 96 100" xml:space="preserve">
<g xmlns="http://www.w3.org/2000/svg" xmlns:xlink="http://www.w3.org/1999/xlink">
	<path fill="#FFFFFF" d="M77.436,76.951c-5.945,0-8.916-0.667-8.916-2.004l-2.104-40.171L54.194,75.448   c-0.268,0.802-2.539,1.202-6.812,1.202c-4.275,0-6.479-0.366-6.612-1.103L28.148,34.375l-1.403,39.97   c-0.067,1.002-1.336,1.688-3.807,2.054c-2.471,0.368-4.525,0.552-6.161,0.552c-1.637,0-3.223-0.101-4.758-0.301   c-3.206-0.467-4.776-1.303-4.708-2.505L9.616,9.031c0-1.603,4.073-2.404,12.222-2.404c2.404,0,5.342,0.185,8.815,0.551   c3.472,0.368,5.41,1.086,5.81,2.154l11.22,31.556L57.5,9.231c0.602-1.736,5.209-2.604,13.824-2.604   c2.471,0,5.426,0.185,8.866,0.551c3.438,0.368,5.159,1.019,5.159,1.954l2.904,65.715c0,0.736-1.302,1.27-3.906,1.604   C81.743,76.785,79.438,76.951,77.436,76.951z"/>
</g>
</svg>