<?xml version="1.0" encoding="utf-8"?>
<!DOCTYPE svg PUBLIC "-//W3C//DTD SVG 1.1//EN" "http://www.w3.org/Graphics/SVG/1.1/DTD/svg11.dtd">
<svg version="1.1" xmlns="http://www.w3.org/2000/svg" xmlns:xlink="http://www.w3.org/1999/xlink"id="Layer_1" viewBox="0 0 96 100" xml:space="preserve">
<g xmlns="http://www.w3.org/2000/svg" xmlns:xlink="http://www.w3.org/1999/xlink">
	<path fill="#FFFFFF" d="M75.182,74.646c0,1.402-3.139,2.104-9.416,2.104s-9.684-0.5-10.217-1.502l-16.73-31.255v31.155   c0,1.202-3.09,1.804-9.266,1.804c-6.178,0-9.267-0.602-9.267-1.804V8.129c0-1.002,2.638-1.502,7.914-1.502   c2.069,0,4.491,0.185,7.263,0.551c2.771,0.368,4.458,1.052,5.059,2.054l16.027,30.854V8.63c0-1.268,3.105-1.903,9.316-1.903   s9.316,0.635,9.316,1.903V74.646z"/>
</g>
</svg>