<?xml version="1.0" encoding="utf-8"?>
<!DOCTYPE svg PUBLIC "-//W3C//DTD SVG 1.1//EN" "http://www.w3.org/Graphics/SVG/1.1/DTD/svg11.dtd">
<svg version="1.1" xmlns="http://www.w3.org/2000/svg" xmlns:xlink="http://www.w3.org/1999/xlink"id="Layer_1" viewBox="0 0 96 100" xml:space="preserve">
<g xmlns="http://www.w3.org/2000/svg" xmlns:xlink="http://www.w3.org/1999/xlink">
	<path fill="#FFFFFF" d="M47.684,77.852c-9.384,0-17.03-3.071-22.94-9.217c-5.911-6.144-8.866-15.109-8.866-26.897   c0-11.787,2.988-20.719,8.966-26.797c5.976-6.076,13.689-9.116,23.141-9.116c9.45,0,17.081,2.99,22.89,8.966   c5.811,5.978,8.716,15.027,8.716,27.148c0,12.122-2.973,21.137-8.916,27.047C64.729,74.896,57.065,77.852,47.684,77.852z    M47.733,25.058c-3.206,0-5.895,1.47-8.064,4.408c-2.171,2.94-3.256,7.062-3.256,12.372s1.035,9.384,3.105,12.222   c2.069,2.839,4.792,4.258,8.165,4.258c3.371,0,6.11-1.436,8.215-4.308c2.104-2.871,3.155-6.979,3.155-12.322   c0-5.342-1.087-9.449-3.256-12.322C53.627,26.495,50.939,25.058,47.733,25.058z"/>
</g>
</svg>