<?xml version="1.0" encoding="utf-8"?>
<!DOCTYPE svg PUBLIC "-//W3C//DTD SVG 1.1//EN" "http://www.w3.org/Graphics/SVG/1.1/DTD/svg11.dtd">
<svg version="1.1" xmlns="http://www.w3.org/2000/svg" xmlns:xlink="http://www.w3.org/1999/xlink"id="Layer_1" viewBox="0 0 96 100" xml:space="preserve">
<g xmlns="http://www.w3.org/2000/svg" xmlns:xlink="http://www.w3.org/1999/xlink">
	<path fill="#FFFFFF" d="M32.908,77.05c-6.078,0-9.116-0.667-9.116-2.003V10.132c0-2.27,1.035-3.406,3.105-3.406h17.631   c9.883,0,17.013,2.038,21.388,6.111c4.373,4.074,6.562,9.984,6.562,17.731c0,6.412-2.07,12.289-6.211,17.631   c-2.071,2.672-5.109,4.809-9.116,6.411s-8.682,2.404-14.024,2.404v17.932c0,0.802-1.252,1.353-3.757,1.653   C36.865,76.899,34.711,77.05,32.908,77.05z M43.126,24.157v15.828h1.302c2.337,0,4.308-0.734,5.911-2.204   c1.603-1.468,2.404-3.539,2.404-6.211c0-2.67-0.552-4.574-1.653-5.71c-1.102-1.135-3.055-1.703-5.86-1.703H43.126z"/>
</g>
</svg>