<?xml version="1.0" encoding="utf-8"?>
<!DOCTYPE svg PUBLIC "-//W3C//DTD SVG 1.1//EN" "http://www.w3.org/Graphics/SVG/1.1/DTD/svg11.dtd">
<svg version="1.1" xmlns="http://www.w3.org/2000/svg" xmlns:xlink="http://www.w3.org/1999/xlink"id="Layer_1" viewBox="0 0 96 100" xml:space="preserve">
<g xmlns="http://www.w3.org/2000/svg" xmlns:xlink="http://www.w3.org/1999/xlink">
	<path fill="#FFFFFF" d="M15.377,41.888c0-11.887,2.988-20.87,8.966-26.948c5.976-6.076,13.689-9.116,23.141-9.116   c9.45,0,17.081,2.99,22.89,8.966c5.811,5.978,8.717,15.011,8.717,27.098c0,9.284-1.805,16.764-5.41,22.439   c-3.605,5.678-8.549,9.584-14.826,11.721l10.619,7.313c0.4,0.266,0.602,0.751,0.602,1.452s-0.752,2.02-2.254,3.957   c-1.504,1.937-3.307,3.422-5.41,4.458c-2.104,1.034-3.691,1.553-4.758,1.553c-1.07,0-1.939-0.368-2.605-1.102L40.421,77.45   c-7.48-1.402-13.524-5.158-18.132-11.27C17.681,60.07,15.377,51.973,15.377,41.888z M47.233,25.058   c-3.206,0-5.895,1.47-8.064,4.408c-2.171,2.94-3.256,7.062-3.256,12.372s1.035,9.384,3.105,12.222   c2.069,2.839,4.792,4.258,8.165,4.258c3.372,0,6.11-1.436,8.215-4.308c2.104-2.871,3.154-6.979,3.154-12.322   c0-5.342-1.086-9.449-3.256-12.322C53.127,26.495,50.439,25.058,47.233,25.058z"/>
</g>
</svg>