<?xml version="1.0" encoding="utf-8"?>
<!DOCTYPE svg PUBLIC "-//W3C//DTD SVG 1.1//EN" "http://www.w3.org/Graphics/SVG/1.1/DTD/svg11.dtd">
<svg version="1.1" xmlns="http://www.w3.org/2000/svg" xmlns:xlink="http://www.w3.org/1999/xlink"id="Layer_1" viewBox="0 0 96 100" xml:space="preserve">
<g xmlns="http://www.w3.org/2000/svg" xmlns:xlink="http://www.w3.org/1999/xlink">
	<path fill="#FFFFFF" d="M42.324,75.447c0,1.069-3.173,1.603-9.517,1.603c-6.412,0-9.617-0.501-9.617-1.503V10.232   c0-2.337,1.235-3.506,3.707-3.506h19.134c17.564,0,26.346,6.846,26.346,20.536c0,4.142-0.801,7.898-2.404,11.27   c-1.603,3.373-3.874,6.061-6.812,8.064l12.622,21.038c-0.535,1.603-2.271,3.44-5.209,5.51c-4.007,2.872-7.313,4.307-9.918,4.307   s-4.542-0.934-5.81-2.805L45.43,52.707h-3.105V75.447z M42.324,24.457v15.027h0.501c6.344,0,9.517-2.638,9.517-7.914   c0-2.404-0.618-4.19-1.854-5.359c-1.236-1.168-3.255-1.753-6.061-1.753H42.324z"/>
</g>
</svg>