<?xml version="1.0" encoding="utf-8"?>
<!DOCTYPE svg PUBLIC "-//W3C//DTD SVG 1.1//EN" "http://www.w3.org/Graphics/SVG/1.1/DTD/svg11.dtd">
<svg version="1.1" xmlns="http://www.w3.org/2000/svg" xmlns:xlink="http://www.w3.org/1999/xlink"id="Layer_1" viewBox="0 0 96 100" xml:space="preserve">
<g xmlns="http://www.w3.org/2000/svg" xmlns:xlink="http://www.w3.org/1999/xlink">
	<path fill="#FFFFFF" d="M28.75,52.406c1.268,1.002,3.456,2.372,6.562,4.107c3.105,1.737,6.077,2.604,8.916,2.604   c2.838,0,4.257-1.102,4.257-3.306c0-1.002-0.4-1.886-1.202-2.654c-0.801-0.768-2.271-1.653-4.408-2.655   c-2.138-1.001-3.741-1.786-4.809-2.354c-1.069-0.566-2.489-1.502-4.257-2.805c-1.771-1.302-3.123-2.655-4.057-4.057   c-2.672-3.807-4.007-8.648-4.007-14.526c0-5.876,2.187-10.834,6.562-14.876c4.373-4.04,10.101-6.061,17.18-6.061   c4.809,0,9.25,0.518,13.324,1.553c4.072,1.036,6.176,2.389,6.311,4.057c0,0.201,0,0.401,0,0.601c0,2.339-0.735,5.294-2.204,8.866   c-1.47,3.574-2.504,5.56-3.105,5.96c-4.274-2.204-8.099-3.306-11.47-3.306c-3.373,0-5.059,1.202-5.059,3.606   c0,1.47,1.235,2.772,3.707,3.907c0.534,0.268,1.303,0.636,2.304,1.102c1.002,0.468,2.154,1.019,3.457,1.653   c1.302,0.635,2.704,1.437,4.207,2.404c1.503,0.969,3.121,2.254,4.858,3.857c3.539,3.34,5.31,7.748,5.31,13.223   c0,7.147-1.971,12.99-5.91,17.531c-3.941,4.543-10.018,6.878-18.232,7.013c-4.007,0-7.631-0.335-10.869-1.002   c-3.24-0.667-6.061-1.969-8.465-3.907c-2.404-1.936-3.606-4.272-3.606-7.012c0-2.738,0.501-5.46,1.502-8.165   C26.546,55.062,27.614,53.275,28.75,52.406z"/>
</g>
</svg>