<?xml version="1.0" encoding="utf-8"?>
<!DOCTYPE svg PUBLIC "-//W3C//DTD SVG 1.1//EN" "http://www.w3.org/Graphics/SVG/1.1/DTD/svg11.dtd">
<svg version="1.1" xmlns="http://www.w3.org/2000/svg" xmlns:xlink="http://www.w3.org/1999/xlink"id="Layer_1" viewBox="0 0 96 100" xml:space="preserve">
<g xmlns="http://www.w3.org/2000/svg" xmlns:xlink="http://www.w3.org/1999/xlink">
	<path fill="#FFFFFF" d="M57.751,75.247c0,1.337-3.306,2.003-9.917,2.003s-9.917-0.666-9.917-2.003V24.958H25.895   c-1.136,0-1.938-1.536-2.404-4.608c-0.2-1.468-0.3-2.971-0.3-4.508c0-1.535,0.1-3.038,0.3-4.508   c0.467-3.071,1.268-4.608,2.404-4.608h43.577c1.135,0,1.937,1.537,2.404,4.608c0.2,1.47,0.301,2.973,0.301,4.508   c0,1.537-0.101,3.04-0.301,4.508c-0.468,3.072-1.27,4.608-2.404,4.608H57.751V75.247z"/>
</g>
</svg>