<?xml version="1.0" encoding="utf-8"?>
<!DOCTYPE svg PUBLIC "-//W3C//DTD SVG 1.1//EN" "http://www.w3.org/Graphics/SVG/1.1/DTD/svg11.dtd">
<svg version="1.1" xmlns="http://www.w3.org/2000/svg" xmlns:xlink="http://www.w3.org/1999/xlink"id="Layer_1" viewBox="0 0 96 100" xml:space="preserve">
<g xmlns="http://www.w3.org/2000/svg" xmlns:xlink="http://www.w3.org/1999/xlink">
	<path fill="#FFFFFF" d="M54.045,8.729c0-1.335,3.622-2.003,10.869-2.003c7.246,0,10.869,0.668,10.869,2.003v45.981   c0,6.812-2.438,12.371-7.312,16.679c-4.876,4.308-11.605,6.462-20.186,6.462c-8.582,0-15.562-2.22-20.937-6.662   c-5.376-4.44-8.064-10.434-8.064-17.981V8.83c0-1.335,3.622-2.003,10.869-2.003c7.246,0,10.869,0.668,10.869,2.003v45.18   c0,1.336,0.701,2.403,2.104,3.205c1.468,0.802,3.005,1.202,4.608,1.202s3.055-0.366,4.358-1.102   c1.302-0.734,1.953-1.836,1.953-3.306V8.729z"/>
</g>
</svg>