<?xml version="1.0" encoding="utf-8"?>
<!DOCTYPE svg PUBLIC "-//W3C//DTD SVG 1.1//EN" "http://www.w3.org/Graphics/SVG/1.1/DTD/svg11.dtd">
<svg version="1.1" xmlns="http://www.w3.org/2000/svg" xmlns:xlink="http://www.w3.org/1999/xlink"id="Layer_1" viewBox="0 0 96 100" xml:space="preserve">
<g xmlns="http://www.w3.org/2000/svg" xmlns:xlink="http://www.w3.org/1999/xlink">
	<path fill="#FFFFFF" d="M15.727,8.028c0-0.333,1.453-0.651,4.357-0.952c2.905-0.301,5.292-0.451,7.163-0.451   c7.413,0,11.286,0.969,11.621,2.905l8.615,44.078l8.115-44.078c0.4-1.936,4.54-2.905,12.422-2.905c1.936,0,4.373,0.134,7.312,0.4   c2.938,0.268,4.408,0.568,4.408,0.902L62.009,74.245c-0.268,1.069-2.238,1.771-5.911,2.104c-5.677,0.602-10.836,0.717-15.477,0.351   c-4.642-0.366-7.097-1.018-7.363-1.953L15.727,8.028z"/>
</g>
</svg>