<?xml version="1.0" encoding="utf-8"?>
<!DOCTYPE svg PUBLIC "-//W3C//DTD SVG 1.1//EN" "http://www.w3.org/Graphics/SVG/1.1/DTD/svg11.dtd">
<svg version="1.1" xmlns="http://www.w3.org/2000/svg" xmlns:xlink="http://www.w3.org/1999/xlink"id="Layer_1" viewBox="0 0 96 100" xml:space="preserve">
<g xmlns="http://www.w3.org/2000/svg" xmlns:xlink="http://www.w3.org/1999/xlink">
	<path fill="#FFFFFF" d="M2.103,7.728c-0.2-0.734,3.171-1.102,10.118-1.102c7.679,0,11.621,0.635,11.821,1.903l4.909,42.174   L39.569,8.028c0.333-1.002,2.938-1.503,7.814-1.503c4.875,0,7.478,0.468,7.814,1.403l10.418,42.976l5.811-42.576   c0.133-0.734,1.668-1.235,4.607-1.502c2.938-0.266,5.311-0.401,7.113-0.401c7.012,0,10.418,0.468,10.217,1.403L81.242,74.245   c-0.268,1.002-2.17,1.737-5.709,2.204c-3.541,0.466-6.412,0.701-8.615,0.701c-8.283,0-12.623-0.935-13.023-2.806l-6.812-27.548   l-7.413,27.449c-0.268,1.202-2.604,2.07-7.012,2.604c-2.271,0.2-4.542,0.301-6.812,0.301l-6.412-0.301   c-4.408-0.467-6.746-1.303-7.012-2.505L2.103,7.728z"/>
</g>
</svg>