<?xml version="1.0" encoding="utf-8"?>
<!DOCTYPE svg PUBLIC "-//W3C//DTD SVG 1.1//EN" "http://www.w3.org/Graphics/SVG/1.1/DTD/svg11.dtd">
<svg version="1.1" xmlns="http://www.w3.org/2000/svg" xmlns:xlink="http://www.w3.org/1999/xlink"id="Layer_1" viewBox="0 0 96 100" xml:space="preserve">
<g xmlns="http://www.w3.org/2000/svg" xmlns:xlink="http://www.w3.org/1999/xlink">
	<path fill="#FFFFFF" d="M55.697,9.431c0.801-2.003,4.974-3.005,12.521-3.005c1.937,0,4.323,0.15,7.163,0.451   c2.838,0.301,4.257,0.585,4.257,0.852L62.609,42.389L80.24,75.547c0.2,0.335-1.236,0.651-4.308,0.952   c-3.072,0.301-5.678,0.451-7.813,0.451c-8.482,0-13.124-1.135-13.925-3.406L46.681,54.41l-6.812,19.734   c-0.668,1.871-4.943,2.806-12.823,2.806c-1.938,0-4.342-0.134-7.213-0.401c-2.872-0.266-4.174-0.634-3.907-1.102l15.627-34.661   L15.326,7.728c-0.2-0.333,1.185-0.651,4.157-0.952c2.971-0.3,5.493-0.451,7.563-0.451c8.415,0,13.023,1.202,13.824,3.606   l6.912,16.83L55.697,9.431z"/>
</g>
</svg>