<?xml version="1.0" encoding="utf-8"?>
<!DOCTYPE svg PUBLIC "-//W3C//DTD SVG 1.1//EN" "http://www.w3.org/Graphics/SVG/1.1/DTD/svg11.dtd">
<svg version="1.1" xmlns="http://www.w3.org/2000/svg" xmlns:xlink="http://www.w3.org/1999/xlink"id="Layer_1" viewBox="0 0 96 100" xml:space="preserve">
<g xmlns="http://www.w3.org/2000/svg" xmlns:xlink="http://www.w3.org/1999/xlink">
	<path fill="#FFFFFF" d="M56.555,10.033c0.867-2.337,5.141-3.506,12.822-3.506c1.936,0,4.223,0.135,6.861,0.401   c2.639,0.268,3.857,0.601,3.658,1.002L59.059,49.803v24.443c0,1.137-1.838,1.938-5.51,2.404c-1.871,0.266-3.707,0.4-5.509,0.4   c-1.803,0-3.606-0.1-5.41-0.301c-3.674-0.466-5.51-1.302-5.51-2.504V50.404L15.582,8.129c-0.266-0.401,1.102-0.784,4.107-1.152   c3.005-0.366,5.542-0.551,7.613-0.551c8.214,0,12.723,1.202,13.524,3.606l7.313,20.436L56.555,10.033z"/>
</g>
</svg>