<?xml version="1.0" encoding="utf-8"?>
<!DOCTYPE svg PUBLIC "-//W3C//DTD SVG 1.1//EN" "http://www.w3.org/Graphics/SVG/1.1/DTD/svg11.dtd">
<svg version="1.1" xmlns="http://www.w3.org/2000/svg" xmlns:xlink="http://www.w3.org/1999/xlink"id="Layer_1" viewBox="0 0 96 100" xml:space="preserve">
<g xmlns="http://www.w3.org/2000/svg" xmlns:xlink="http://www.w3.org/1999/xlink">
	<path fill="#FFFFFF" d="M27.147,24.958c-1.136,0-1.938-1.536-2.404-4.608c-0.2-1.268-0.3-2.67-0.3-4.208   c0-1.536,0.166-3.138,0.501-4.809c0.601-3.071,1.603-4.608,3.005-4.608h37.065c4.072,0,6.712,3.707,7.914,11.12   c0.266,1.603,0.4,2.772,0.4,3.506L49.888,56.914H68.22c0.066,0,0.134,0,0.2,0c1.469,0,2.505,1.604,3.105,4.809   c0.267,1.537,0.401,3.141,0.401,4.809c0,1.67-0.2,3.44-0.602,5.31c-0.735,3.34-1.87,5.009-3.405,5.009H28.951   c-0.601,0-1.687-2.02-3.256-6.061c-1.57-4.04-2.354-6.562-2.354-7.563s0.1-1.636,0.301-1.903l23.441-36.364H27.147z"/>
</g>
</svg>